# xmcd CD database file
#
# Track frame offsets:
#	150
#	23814
#	50616
#	67568
#	93908
#	119410
#	125862
#	143226
#	170623
#	190818
#	223070
#
# Disc length: 2978 seconds
#
# Revision: 0
# Processed by: cddbd v1.5.1PL2 Copyright (c) Steve Scherf et al.
# Submitted via: CDex 1.51
#
DISCID=9f0ba00b
DTITLE=高橋洋子 - Li\x{ff0d}La
DYEAR=1997
DGENRE=DOMESTIC(J-POPS)
TTITLE0=残酷な天使のテーゼ
TTITLE1=LOVE IS A ROSE
TTITLE2=我が心のマリア\x{ff5e}MARIA\x{ff5e}
TTITLE3=魂のルフラン
TTITLE4=命の種のように
TTITLE5=雨の恋
TTITLE6=Sing Bird
TTITLE7=NOEL
TTITLE8=FLY ME TO THE MOON
TTITLE9=cd-ex
TTITLE10=cd-ex
EXTD=YEAR: 1997
EXTT0=
EXTT1=
EXTT2=
EXTT3=
EXTT4=
EXTT5=
EXTT6=
EXTT7=
EXTT8=
EXTT9=
EXTT10=
PLAYORDER=
